<?xml version="1.0" encoding="utf-8"?>

<!-- Generator: Adobe Illustrator 22.0.0, SVG Export Plug-In . SVG Version: 6.00 Build 0)  -->
<svg version="1.1" id="Layer_1" xmlns="http://www.w3.org/2000/svg" xmlns:xlink="http://www.w3.org/1999/xlink" x="0px" y="0px"
	 viewBox="0 0 1920 1080" style="enable-background:new 0 0 1920 1080;" xml:space="preserve">
<style type="text/css">
	.st0{fill:#C3DFF1;}
	.st1{fill:#30609C;}
	.st2{fill:#599FCF;}
	.st3{font-family:'Roboto';}
	.st4{font-size:17px;}
	.st5{font-size:27px;}
	.st6{fill:none;stroke:#30609C;stroke-width:2;stroke-miterlimit:10;}
</style>
<g>
	<rect x="168" y="403" class="st0" width="339.5" height="244.4"/>
	<path class="st1" d="M507.5,403h-12v3h12V403L507.5,403z M483.5,403h-12v3h12V403L483.5,403z M459.5,403h-12v3h12V403L459.5,403z
		 M435.5,403h-12v3h12V403L435.5,403z M411.5,403h-12v3h12V403L411.5,403z M387.5,403h-12v3h12V403L387.5,403z M363.5,403h-12v3h12
		V403L363.5,403z M339.5,403h-12v3h12V403L339.5,403z M315.5,403h-12v3h12V403L315.5,403z M291.5,403h-12v3h12V403L291.5,403z
		 M267.5,403h-12v3h12V403L267.5,403z M243.5,403h-12v3h12V403L243.5,403z M219.5,403h-12v3h12V403L219.5,403z M195.5,403h-12v3h12
		V403L195.5,403z M171.5,403H168v3l0,0c0,2.5,0,5.5,0,5.5h3V406h0.5V403L171.5,403z M171,423.5h-3v12h3V423.5L171,423.5z M171,447.5
		h-3v12h3V447.5L171,447.5z M171,471.5h-3v12h3V471.5L171,471.5z M171,495.5h-3v12h3V495.5L171,495.5z M171,519.5h-3v12h3V519.5
		L171,519.5z M171,543.5h-3v12h3V543.5L171,543.5z M171,567.5h-3v12h3V567.5L171,567.5z M171,591.5h-3v12h3V591.5L171,591.5z
		 M171,615.5h-3v12h3V615.5L171,615.5z M171,639.5h-3v7.9h3l0,0l0,0l0,0l0,0c0.6,0,1.1,0,1.1,0v-3H171V639.5L171,639.5z
		 M196.1,644.4h-12v3h12V644.4L196.1,644.4z M220.1,644.4h-12v3h12V644.4L220.1,644.4z M244.1,644.4h-12v3h12V644.4L244.1,644.4z
		 M268.1,644.4h-12v3h12V644.4L268.1,644.4z M292.1,644.4h-12v3h12V644.4L292.1,644.4z M316.1,644.4h-12v3h12V644.4L316.1,644.4z
		 M340.1,644.4h-12v3h12V644.4L340.1,644.4z M364.1,644.4h-12v3h12V644.4L364.1,644.4z M388.1,644.4h-12v3h12V644.4L388.1,644.4z
		 M412.1,644.4h-12v3h12V644.4L412.1,644.4z M436.1,644.4h-12v3h12V644.4L436.1,644.4z M460.1,644.4h-12v3h12V644.4L460.1,644.4z
		 M484.1,644.4h-12v3h12V644.4L484.1,644.4z M507.5,644.4h-11.4v3h11.4V644.4L507.5,644.4z M507.5,622.8h-3v12h3V622.8L507.5,622.8z
		 M507.5,598.8h-3v12h3V598.8L507.5,598.8z M507.5,574.8h-3v12h3V574.8L507.5,574.8z M507.5,550.8h-3v12h3V550.8L507.5,550.8z
		 M507.5,526.8h-3v12h3V526.8L507.5,526.8z M507.5,502.8h-3v12h3V502.8L507.5,502.8z M507.5,478.8h-3v12h3V478.8L507.5,478.8z
		 M507.5,454.8h-3v12h3V454.8L507.5,454.8z M507.5,430.8h-3v12h3V430.8L507.5,430.8z M507.5,406.8h-3v12h3V406.8L507.5,406.8z"/>
</g>
<g>
	<rect x="914.5" y="402" class="st0" width="339.5" height="244.4"/>
	<g>
		<path class="st1" d="M1254,402h-12v3h12V402L1254,402z M1230,402h-12v3h12V402L1230,402z M1206,402h-12v3h12V402L1206,402z
			 M1182,402h-12v3h12V402L1182,402z M1158,402h-12v3h12V402L1158,402z M1134,402h-12v3h12V402L1134,402z M1110,402h-12v3h12V402
			L1110,402z M1086,402h-12v3h12V402L1086,402z M1062,402h-12v3h12V402L1062,402z M1038,402h-12v3h12V402L1038,402z M1014,402h-12v3
			h12V402L1014,402z M990,402h-12v3h12V402L990,402z M966,402h-12v3h12V402L966,402z M942,402h-12v3h12V402L942,402z M918,402h-3.5
			v3l0,0c0,2.5,0,5.5,0,5.5h3V405h0.5V402L918,402z M917.5,422.5h-3v12h3V422.5L917.5,422.5z M917.5,446.5h-3v12h3V446.5
			L917.5,446.5z M917.5,470.5h-3v12h3V470.5L917.5,470.5z M917.5,494.5h-3v12h3V494.5L917.5,494.5z M917.5,518.5h-3v12h3V518.5
			L917.5,518.5z M917.5,542.5h-3v12h3V542.5L917.5,542.5z M917.5,566.5h-3v12h3V566.5L917.5,566.5z M917.5,590.5h-3v12h3V590.5
			L917.5,590.5z M917.5,614.5h-3v12h3V614.5L917.5,614.5z M917.5,638.5h-3v7.9h3l0,0l0,0l0,0l0,0c0.6,0,1.1,0,1.1,0v-3h-1.1V638.5
			L917.5,638.5z M942.6,643.4h-12v3h12V643.4L942.6,643.4z M966.6,643.4h-12v3h12V643.4L966.6,643.4z M990.6,643.4h-12v3h12V643.4
			L990.6,643.4z M1014.6,643.4h-12v3h12V643.4L1014.6,643.4z M1038.6,643.4h-12v3h12V643.4L1038.6,643.4z M1062.6,643.4h-12v3h12
			V643.4L1062.6,643.4z M1086.6,643.4h-12v3h12V643.4L1086.6,643.4z M1110.6,643.4h-12v3h12V643.4L1110.6,643.4z M1134.6,643.4h-12
			v3h12V643.4L1134.6,643.4z M1158.6,643.4h-12v3h12V643.4L1158.6,643.4z M1182.6,643.4h-12v3h12V643.4L1182.6,643.4z M1206.6,643.4
			h-12v3h12V643.4L1206.6,643.4z M1230.6,643.4h-12v3h12V643.4L1230.6,643.4z M1254,643.4h-11.4v3h11.4V643.4L1254,643.4z
			 M1254,621.8h-3v12h3V621.8L1254,621.8z M1254,597.8h-3v12h3V597.8L1254,597.8z M1254,573.8h-3v12h3V573.8L1254,573.8z
			 M1254,549.8h-3v12h3V549.8L1254,549.8z M1254,525.8h-3v12h3V525.8L1254,525.8z M1254,501.8h-3v12h3V501.8L1254,501.8z
			 M1254,477.8h-3v12h3V477.8L1254,477.8z M1254,453.8h-3v12h3V453.8L1254,453.8z M1254,429.8h-3v12h3V429.8L1254,429.8z
			 M1254,405.8h-3v12h3V405.8L1254,405.8z"/>
	</g>
</g>
<g>
	<rect x="1283.5" y="402" class="st0" width="339.5" height="244.4"/>
	<g>
		<path class="st1" d="M1623,402h-12v3h12V402L1623,402z M1599,402h-12v3h12V402L1599,402z M1575,402h-12v3h12V402L1575,402z
			 M1551,402h-12v3h12V402L1551,402z M1527,402h-12v3h12V402L1527,402z M1503,402h-12v3h12V402L1503,402z M1479,402h-12v3h12V402
			L1479,402z M1455,402h-12v3h12V402L1455,402z M1431,402h-12v3h12V402L1431,402z M1407,402h-12v3h12V402L1407,402z M1383,402h-12v3
			h12V402L1383,402z M1359,402h-12v3h12V402L1359,402z M1335,402h-12v3h12V402L1335,402z M1311,402h-12v3h12V402L1311,402z
			 M1287,402h-3.5v3l0,0c0,2.5,0,5.5,0,5.5h3V405h0.5V402L1287,402z M1286.5,422.5h-3v12h3V422.5L1286.5,422.5z M1286.5,446.5h-3v12
			h3V446.5L1286.5,446.5z M1286.5,470.5h-3v12h3V470.5L1286.5,470.5z M1286.5,494.5h-3v12h3V494.5L1286.5,494.5z M1286.5,518.5h-3
			v12h3V518.5L1286.5,518.5z M1286.5,542.5h-3v12h3V542.5L1286.5,542.5z M1286.5,566.5h-3v12h3V566.5L1286.5,566.5z M1286.5,590.5
			h-3v12h3V590.5L1286.5,590.5z M1286.5,614.5h-3v12h3V614.5L1286.5,614.5z M1286.5,638.5h-3v7.9h3l0,0l0,0l0,0l0,0
			c0.6,0,1.1,0,1.1,0v-3h-1.1V638.5L1286.5,638.5z M1311.6,643.4h-12v3h12V643.4L1311.6,643.4z M1335.6,643.4h-12v3h12V643.4
			L1335.6,643.4z M1359.6,643.4h-12v3h12V643.4L1359.6,643.4z M1383.6,643.4h-12v3h12V643.4L1383.6,643.4z M1407.6,643.4h-12v3h12
			V643.4L1407.6,643.4z M1431.6,643.4h-12v3h12V643.4L1431.6,643.4z M1455.6,643.4h-12v3h12V643.4L1455.6,643.4z M1479.6,643.4h-12
			v3h12V643.4L1479.6,643.4z M1503.6,643.4h-12v3h12V643.4L1503.6,643.4z M1527.6,643.4h-12v3h12V643.4L1527.6,643.4z M1551.6,643.4
			h-12v3h12V643.4L1551.6,643.4z M1575.6,643.4h-12v3h12V643.4L1575.6,643.4z M1599.6,643.4h-12v3h12V643.4L1599.6,643.4z
			 M1623,643.4h-11.4v3h11.4V643.4L1623,643.4z M1623,621.8h-3v12h3V621.8L1623,621.8z M1623,597.8h-3v12h3V597.8L1623,597.8z
			 M1623,573.8h-3v12h3V573.8L1623,573.8z M1623,549.8h-3v12h3V549.8L1623,549.8z M1623,525.8h-3v12h3V525.8L1623,525.8z
			 M1623,501.8h-3v12h3V501.8L1623,501.8z M1623,477.8h-3v12h3V477.8L1623,477.8z M1623,453.8h-3v12h3V453.8L1623,453.8z
			 M1623,429.8h-3v12h3V429.8L1623,429.8z M1623,405.8h-3v12h3V405.8L1623,405.8z"/>
	</g>
</g>
<g>
	<rect x="542.5" y="402.6" class="st0" width="339.5" height="244.4"/>
	<g>
		<path class="st1" d="M882,402.6h-12v3h12V402.6L882,402.6z M858,402.6h-12v3h12V402.6L858,402.6z M834,402.6h-12v3h12V402.6
			L834,402.6z M810,402.6h-12v3h12V402.6L810,402.6z M786,402.6h-12v3h12V402.6L786,402.6z M762,402.6h-12v3h12V402.6L762,402.6z
			 M738,402.6h-12v3h12V402.6L738,402.6z M714,402.6h-12v3h12V402.6L714,402.6z M690,402.6h-12v3h12V402.6L690,402.6z M666,402.6
			h-12v3h12V402.6L666,402.6z M642,402.6h-12v3h12V402.6L642,402.6z M618,402.6h-12v3h12V402.6L618,402.6z M594,402.6h-12v3h12
			V402.6L594,402.6z M570,402.6h-12v3h12V402.6L570,402.6z M546,402.6h-3.5v3l0,0c0,2.5,0,5.5,0,5.5h3v-5.5h0.5V402.6L546,402.6z
			 M545.5,423.1h-3v12h3V423.1L545.5,423.1z M545.5,447.1h-3v12h3V447.1L545.5,447.1z M545.5,471.1h-3v12h3V471.1L545.5,471.1z
			 M545.5,495.1h-3v12h3V495.1L545.5,495.1z M545.5,519.1h-3v12h3V519.1L545.5,519.1z M545.5,543.1h-3v12h3V543.1L545.5,543.1z
			 M545.5,567.1h-3v12h3V567.1L545.5,567.1z M545.5,591.1h-3v12h3V591.1L545.5,591.1z M545.5,615.1h-3v12h3V615.1L545.5,615.1z
			 M545.5,639.1h-3v7.9h3l0,0l0,0l0,0l0,0c0.6,0,1.1,0,1.1,0v-3h-1.1V639.1L545.5,639.1z M570.7,644h-12v3h12V644L570.7,644z
			 M594.7,644h-12v3h12V644L594.7,644z M618.7,644h-12v3h12V644L618.7,644z M642.7,644h-12v3h12V644L642.7,644z M666.7,644h-12v3h12
			V644L666.7,644z M690.7,644h-12v3h12V644L690.7,644z M714.7,644h-12v3h12V644L714.7,644z M738.7,644h-12v3h12V644L738.7,644z
			 M762.7,644h-12v3h12V644L762.7,644z M786.7,644h-12v3h12V644L786.7,644z M810.7,644h-12v3h12V644L810.7,644z M834.7,644h-12v3h12
			V644L834.7,644z M858.7,644h-12v3h12V644L858.7,644z M882,644h-11.4v3H882V644L882,644z M882,622.4h-3v12h3V622.4L882,622.4z
			 M882,598.4h-3v12h3V598.4L882,598.4z M882,574.4h-3v12h3V574.4L882,574.4z M882,550.4h-3v12h3V550.4L882,550.4z M882,526.4h-3v12
			h3V526.4L882,526.4z M882,502.4h-3v12h3V502.4L882,502.4z M882,478.4h-3v12h3V478.4L882,478.4z M882,454.4h-3v12h3V454.4
			L882,454.4z M882,430.4h-3v12h3V430.4L882,430.4z M882,406.4h-3v12h3V406.4L882,406.4z"/>
	</g>
</g>
<g>
	<rect x="222" y="451" class="st2" width="232" height="56"/>
	<path class="st1" d="M453,452v54H223v-54H453 M455,450H221v58h234V450L455,450z"/>
</g>
<g>
	<rect x="595" y="451" class="st2" width="232" height="56"/>
	<g>
		<path class="st1" d="M826,452v54H596v-54H826 M828,450H594v58h234V450L828,450z"/>
	</g>
</g>
<g>
	<rect x="1337" y="496" class="st2" width="232" height="56"/>
	<g>
		<path class="st1" d="M1568,497v54h-230v-54H1568 M1570,495h-234v58h234V495L1570,495z"/>
	</g>
</g>
<g>
	<rect x="595" y="541" class="st2" width="232" height="56"/>
	<g>
		<path class="st1" d="M826,542v54H596v-54H826 M828,540H594v58h234V540L828,540z"/>
	</g>
</g>
<g>
	<rect x="222" y="541" class="st2" width="232" height="55"/>
	<g>
		<path class="st1" d="M453,542v53H223v-53H453 M455,540H221v57h234V540L455,540z"/>
	</g>
</g>
<text transform="matrix(1 0 0 1 278.771 483.1685)" class="st3 st4">IR-Reflectogram</text>
<text transform="matrix(1 0 0 1 642.771 483.1685)" class="st3 st4">Image Registration</text>
<g>
	<rect x="968" y="451" class="st2" width="232" height="56"/>
	<g>
		<path class="st1" d="M1199,452v54H969v-54H1199 M1201,450H967v58h234V450L1201,450z"/>
	</g>
</g>
<text transform="matrix(1 0 0 1 1033.771 483.1685)" class="st3 st4">Crack removal</text>
<text transform="matrix(1 0 0 1 635.771 573.1685)" class="st3 st4">Image normalization</text>
<text transform="matrix(1 0 0 1 303.6987 384.8193)" class="st3 st5">Inputs</text>
<text transform="matrix(1 0 0 1 583.6987 384.8193)" class="st3 st5">Image pre-processing</text>
<text transform="matrix(1 0 0 1 980.6987 384.8193)" class="st3 st5">Image processing</text>
<text transform="matrix(1 0 0 1 1408.6987 384.8193)" class="st3 st5">Output</text>
<text transform="matrix(1 0 0 1 294.7227 573.1445)" class="st3 st4">Color-Image</text>
<g>
	<g>
		<rect x="971" y="537" class="st2" width="232" height="56"/>
		<g>
			<path class="st1" d="M1202,538v54H972v-54H1202 M1204,536H970v58h234V536L1204,536z"/>
		</g>
	</g>
	<text transform="matrix(1 0 0 1 1016.3867 558.5903)"><tspan x="0" y="0" class="st3 st4">Feature Extraction</tspan><tspan x="21.4" y="20.4" class="st3 st4">(CNN Model)</tspan></text>
</g>
<text transform="matrix(1 0 0 1 1357.3848 528.5903)" class="st3 st4">Underdrawing highlighted</text>
<g>
	<g>
		<line class="st6" x1="507" y1="523" x2="530.9" y2="523"/>
		<g>
			<path class="st1" d="M543,523c-5.7,2.1-12.7,5.7-17.1,9.5l3.4-9.5l-3.4-9.5C530.3,517.3,537.3,520.9,543,523z"/>
		</g>
	</g>
</g>
<g>
	<g>
		<line class="st6" x1="879" y1="527" x2="902.9" y2="527"/>
		<g>
			<path class="st1" d="M915,527c-5.7,2.1-12.7,5.7-17.1,9.5l3.4-9.5l-3.4-9.5C902.3,521.3,909.3,524.9,915,527z"/>
		</g>
	</g>
</g>
<g>
	<g>
		<line class="st6" x1="1254" y1="526" x2="1272.9" y2="526"/>
		<g>
			<path class="st1" d="M1285,526c-5.7,2.1-12.7,5.7-17.1,9.5l3.4-9.5l-3.4-9.5C1272.3,520.3,1279.3,523.9,1285,526z"/>
		</g>
	</g>
</g>
</svg>
